# xmcd CD database file
#
# Track frame offsets:
#	180
#	14501
#	27178
#	42474
#	54279
#	67707
#	81304
#	96458
#	109118
#	122538
#
# Disc length: 1832 seconds
#
# Revision: 0
# Processed by: cddbd v1.5.2PL0 Copyright (c) Steve Scherf et al.
# Submitted via: CDex 1.51
#
DISCID=7b07260a
DTITLE=Various Artist - Portraits du Blues
DYEAR=1900
DGENRE=Blues
TTITLE0=Charlie Patton - High Sheriff Blues
TTITLE1=Memphis Minnie - Bumble Bee
TTITLE2=Bessie Smith - Back Water Blues
TTITLE3=Arthur Big Boy Crudup - Mean Old Frisco Blues
TTITLE4=Robert Johnson - I Believe I'll Dust My Broom
TTITLE5=Washboard Sam - Diggin' My Potatoes
TTITLE6=Memphis Slim - Beer Drinking Woman
TTITLE7=Blind Boy Fuller and Sonny Terry
TTITLE8=Sonny Boy Williamson
TTITLE9=T-Bone Walker - T-Bone Blues
EXTD=
EXTT0=
EXTT1=
EXTT2=
EXTT3=
EXTT4=
EXTT5=
EXTT6=
EXTT7=
EXTT8=
EXTT9=
PLAYORDER=
